<svg xmlns="http://www.w3.org/2000/svg" xmlns:xlink="http://www.w3.org/1999/xlink" width="500" zoomAndPan="magnify" viewBox="0 0 375 374.999991" height="500" preserveAspectRatio="xMidYMid meet" version="1.0"><defs><g/><clipPath id="b00389ed98"><path d="M 185 133 L 234.945312 133 L 234.945312 187 L 185 187 Z M 185 133 " clip-rule="nonzero"/></clipPath><clipPath id="4c063a3dc5"><path d="M 170 163 L 222 163 L 222 215.175781 L 170 215.175781 Z M 170 163 " clip-rule="nonzero"/></clipPath><clipPath id="fbb77b3224"><path d="M 174 188 L 207 188 L 207 215.175781 L 174 215.175781 Z M 174 188 " clip-rule="nonzero"/></clipPath><clipPath id="ccebd0ffff"><path d="M 139.695312 120 L 152 120 L 152 132 L 139.695312 132 Z M 139.695312 120 " clip-rule="nonzero"/></clipPath><clipPath id="9bde3e7fe0"><path d="M 162 99.675781 L 170 99.675781 L 170 107 L 162 107 Z M 162 99.675781 " clip-rule="nonzero"/></clipPath></defs><path fill="#f9ed32" d="M 189.699219 115.601562 C 190.109375 115.601562 190.515625 115.5625 190.914062 115.480469 C 191.316406 115.402344 191.707031 115.28125 192.085938 115.125 C 192.460938 114.96875 192.820312 114.773438 193.160156 114.546875 C 193.503906 114.320312 193.816406 114.058594 194.105469 113.769531 C 194.394531 113.476562 194.652344 113.160156 194.882812 112.820312 C 195.109375 112.476562 195.300781 112.117188 195.457031 111.734375 C 195.613281 111.355469 195.734375 110.964844 195.8125 110.5625 C 195.894531 110.15625 195.933594 109.75 195.933594 109.339844 C 195.933594 108.929688 195.894531 108.519531 195.816406 108.117188 C 195.734375 107.714844 195.617188 107.320312 195.460938 106.941406 C 195.304688 106.5625 195.113281 106.199219 194.886719 105.859375 C 194.660156 105.515625 194.402344 105.199219 194.113281 104.90625 C 193.824219 104.617188 193.507812 104.355469 193.167969 104.128906 C 192.828125 103.898438 192.46875 103.707031 192.09375 103.546875 C 191.714844 103.390625 191.324219 103.269531 190.921875 103.191406 C 190.523438 103.109375 190.117188 103.070312 189.707031 103.066406 C 189.296875 103.066406 188.894531 103.105469 188.492188 103.1875 C 188.089844 103.265625 187.699219 103.386719 187.324219 103.542969 C 186.945312 103.699219 186.585938 103.890625 186.246094 104.117188 C 185.902344 104.347656 185.589844 104.605469 185.300781 104.898438 C 185.007812 105.1875 184.75 105.503906 184.523438 105.84375 C 184.292969 106.1875 184.101562 106.546875 183.945312 106.925781 C 183.789062 107.304688 183.667969 107.699219 183.589844 108.101562 C 183.507812 108.503906 183.464844 108.910156 183.464844 109.324219 C 183.464844 109.734375 183.507812 110.144531 183.585938 110.546875 C 183.664062 110.949219 183.785156 111.34375 183.941406 111.722656 C 184.097656 112.105469 184.289062 112.464844 184.515625 112.808594 C 184.742188 113.148438 185 113.46875 185.292969 113.757812 C 185.582031 114.050781 185.894531 114.3125 186.234375 114.539062 C 186.574219 114.769531 186.933594 114.960938 187.3125 115.121094 C 187.691406 115.277344 188.082031 115.398438 188.484375 115.480469 C 188.882812 115.558594 189.289062 115.601562 189.699219 115.601562 Z M 189.699219 115.601562 " fill-opacity="0.78" fill-rule="evenodd"/><path fill="#662d91" d="M 219.898438 120.433594 C 221.589844 122.410156 222.992188 124.574219 224.097656 126.933594 C 225.207031 129.289062 225.980469 131.753906 226.417969 134.324219 C 227.683594 141.75 225.753906 148.628906 227.105469 153.253906 C 227.421875 154.289062 227.847656 155.28125 228.378906 156.222656 C 227.746094 156.59375 227.09375 156.925781 226.425781 157.21875 C 225.753906 157.515625 225.070312 157.769531 224.371094 157.988281 C 223.671875 158.203125 222.960938 158.378906 222.242188 158.511719 C 221.523438 158.644531 220.800781 158.738281 220.070312 158.789062 C 219.339844 158.835938 218.609375 158.847656 217.878906 158.8125 C 217.148438 158.777344 216.421875 158.703125 215.699219 158.585938 C 214.976562 158.464844 214.265625 158.308594 213.5625 158.105469 C 212.859375 157.90625 212.167969 157.667969 211.492188 157.386719 C 210.816406 157.109375 210.15625 156.789062 209.515625 156.433594 C 208.875 156.078125 208.257812 155.6875 207.664062 155.261719 C 207.066406 154.832031 206.5 154.375 205.957031 153.878906 C 205.414062 153.386719 204.898438 152.867188 204.414062 152.3125 C 203.933594 151.761719 203.480469 151.183594 203.066406 150.578125 C 202.648438 149.976562 202.265625 149.351562 201.921875 148.703125 C 201.574219 148.054688 201.265625 147.386719 200.996094 146.703125 C 200.726562 146.019531 200.496094 145.324219 200.308594 144.613281 C 200.117188 143.902344 199.96875 143.1875 199.859375 142.457031 C 199.75 141.730469 199.683594 141 199.660156 140.265625 C 199.636719 139.53125 199.652344 138.796875 199.710938 138.0625 C 199.769531 137.332031 199.871094 136.601562 200.011719 135.882812 C 200.15625 135.160156 200.339844 134.449219 200.5625 133.75 C 200.785156 133.050781 201.046875 132.363281 201.347656 131.695312 C 201.652344 131.023438 201.988281 130.375 202.367188 129.742188 C 202.742188 129.113281 203.152344 128.503906 203.597656 127.921875 C 204.042969 127.339844 204.519531 126.78125 205.027344 126.253906 C 205.535156 125.726562 206.074219 125.226562 206.640625 124.761719 C 207.203125 124.296875 207.796875 123.863281 208.410156 123.464844 C 209.023438 123.066406 209.660156 122.703125 210.316406 122.378906 C 210.972656 122.054688 211.644531 121.769531 212.332031 121.519531 C 213.023438 121.273438 213.722656 121.066406 214.4375 120.902344 C 215.148438 120.734375 215.867188 120.609375 216.59375 120.527344 C 217.320312 120.441406 218.050781 120.402344 218.78125 120.402344 C 219.140625 120.402344 219.523438 120.414062 219.898438 120.433594 Z M 219.898438 120.433594 " fill-opacity="0.78" fill-rule="evenodd"/><g clip-path="url(#b00389ed98)"><path fill="#92278f" d="M 226.792969 137.589844 C 227.191406 143.746094 225.957031 149.316406 227.105469 153.269531 C 229.078125 160.019531 237.816406 166.132812 233.734375 169.605469 C 232.441406 170.648438 230.21875 170.714844 228.914062 171.734375 C 226.839844 173.363281 228.257812 175.125 228.441406 176.394531 C 228.53125 177 227.988281 177.96875 226.191406 179.144531 C 227.546875 180.148438 227.421875 181.003906 226.9375 181.785156 C 226.277344 182.242188 225.597656 182.664062 224.898438 183.058594 C 224.199219 183.453125 223.484375 183.8125 222.753906 184.140625 C 222.023438 184.472656 221.277344 184.765625 220.519531 185.027344 C 219.761719 185.289062 218.996094 185.511719 218.21875 185.703125 C 217.4375 185.894531 216.652344 186.050781 215.863281 186.171875 C 215.070312 186.289062 214.273438 186.375 213.472656 186.421875 C 212.675781 186.46875 211.875 186.480469 211.074219 186.453125 C 210.273438 186.429688 209.476562 186.367188 208.679688 186.269531 C 207.886719 186.171875 207.097656 186.039062 206.3125 185.867188 C 205.53125 185.699219 204.757812 185.492188 203.992188 185.253906 C 203.226562 185.015625 202.472656 184.738281 201.734375 184.429688 C 200.996094 184.125 200.269531 183.78125 199.5625 183.40625 C 198.851562 183.035156 198.160156 182.628906 197.488281 182.191406 C 196.816406 181.753906 196.164062 181.289062 195.53125 180.792969 C 194.902344 180.296875 194.292969 179.769531 193.710938 179.21875 C 193.125 178.667969 192.570312 178.089844 192.035156 177.488281 C 191.503906 176.886719 191 176.261719 190.527344 175.613281 C 190.050781 174.964844 189.605469 174.296875 189.1875 173.609375 C 188.773438 172.921875 188.390625 172.214844 188.035156 171.492188 C 187.683594 170.769531 187.367188 170.03125 187.082031 169.277344 C 186.792969 168.527344 186.542969 167.761719 186.324219 166.988281 C 186.109375 166.210938 185.925781 165.429688 185.78125 164.636719 C 185.632812 163.847656 185.523438 163.050781 185.449219 162.246094 C 185.375 161.445312 185.335938 160.640625 185.332031 159.835938 C 185.328125 159.03125 185.363281 158.226562 185.433594 157.425781 C 185.5 156.625 185.605469 155.828125 185.75 155.035156 C 185.890625 154.242188 186.066406 153.457031 186.277344 152.679688 C 186.488281 151.902344 186.734375 151.136719 187.015625 150.382812 C 187.296875 149.628906 187.613281 148.890625 187.957031 148.164062 C 188.304688 147.4375 188.683594 146.730469 189.097656 146.039062 C 189.507812 145.347656 189.949219 144.675781 190.417969 144.023438 C 190.890625 143.375 191.390625 142.746094 191.917969 142.140625 C 192.445312 141.535156 193 140.953125 193.582031 140.398438 C 194.160156 139.84375 194.765625 139.316406 195.390625 138.8125 C 196.019531 138.3125 196.667969 137.84375 197.335938 137.402344 C 198.007812 136.960938 198.695312 136.550781 199.402344 136.171875 C 200.109375 135.792969 200.832031 135.445312 201.570312 135.132812 C 202.308594 134.820312 203.058594 134.539062 203.820312 134.292969 C 204.582031 134.050781 205.355469 133.839844 206.136719 133.664062 C 206.921875 133.488281 207.707031 133.351562 208.503906 133.246094 C 209.296875 133.144531 210.09375 133.078125 210.894531 133.046875 C 211.695312 133.015625 212.496094 133.019531 213.296875 133.0625 C 214.09375 133.105469 214.890625 133.183594 215.683594 133.296875 C 216.476562 133.410156 217.261719 133.5625 218.042969 133.746094 C 218.824219 133.933594 219.59375 134.15625 220.351562 134.410156 C 221.109375 134.664062 221.855469 134.957031 222.589844 135.277344 C 223.324219 135.601562 224.042969 135.957031 224.742188 136.347656 C 225.445312 136.738281 226.128906 137.15625 226.792969 137.605469 Z M 226.792969 137.589844 " fill-opacity="0.78" fill-rule="evenodd"/></g><g clip-path="url(#4c063a3dc5)"><path fill="#007fc6" d="M 221.101562 196.636719 C 211.003906 200.769531 197.488281 186.90625 195.667969 215.175781 C 189.105469 210.84375 182.148438 207.28125 174.800781 204.5 C 174.5 204.050781 174.210938 203.59375 173.933594 203.128906 C 173.660156 202.664062 173.402344 202.1875 173.15625 201.707031 C 172.910156 201.226562 172.683594 200.734375 172.46875 200.238281 C 172.253906 199.742188 172.054688 199.238281 171.871094 198.730469 C 171.6875 198.222656 171.519531 197.707031 171.371094 197.1875 C 171.21875 196.667969 171.082031 196.144531 170.964844 195.617188 C 170.847656 195.089844 170.746094 194.558594 170.660156 194.023438 C 170.574219 193.488281 170.503906 192.953125 170.453125 192.414062 C 170.402344 191.875 170.363281 191.335938 170.347656 190.792969 C 170.328125 190.253906 170.328125 189.710938 170.339844 189.171875 C 170.355469 188.628906 170.386719 188.089844 170.4375 187.550781 C 170.484375 187.011719 170.550781 186.476562 170.632812 185.941406 C 170.714844 185.40625 170.8125 184.871094 170.929688 184.34375 C 171.042969 183.816406 171.175781 183.289062 171.324219 182.769531 C 171.472656 182.25 171.636719 181.734375 171.816406 181.222656 C 171.996094 180.714844 172.191406 180.210938 172.402344 179.710938 C 172.613281 179.214844 172.839844 178.722656 173.082031 178.238281 C 173.324219 177.757812 173.578125 177.28125 173.851562 176.8125 C 174.121094 176.347656 174.40625 175.886719 174.707031 175.4375 C 175.007812 174.988281 175.320312 174.546875 175.648438 174.117188 C 175.976562 173.6875 176.316406 173.269531 176.667969 172.863281 C 177.023438 172.453125 177.386719 172.054688 177.765625 171.671875 C 178.144531 171.285156 178.535156 170.910156 178.933594 170.550781 C 179.335938 170.191406 179.746094 169.84375 180.171875 169.507812 C 180.59375 169.171875 181.027344 168.851562 181.46875 168.542969 C 181.914062 168.234375 182.363281 167.941406 182.824219 167.660156 C 183.285156 167.382812 183.753906 167.117188 184.234375 166.867188 C 184.710938 166.617188 185.195312 166.382812 185.6875 166.164062 C 186.179688 165.945312 186.679688 165.742188 187.183594 165.550781 C 187.6875 165.363281 188.199219 165.191406 188.714844 165.035156 C 189.230469 164.878906 189.75 164.742188 190.273438 164.617188 C 190.796875 164.492188 191.324219 164.386719 191.855469 164.296875 C 192.386719 164.207031 192.921875 164.132812 193.457031 164.078125 C 193.992188 164.019531 194.527344 163.980469 195.066406 163.957031 C 195.605469 163.933594 196.140625 163.929688 196.679688 163.941406 C 197.21875 163.949219 197.757812 163.976562 198.292969 164.023438 C 198.828125 164.066406 199.363281 164.128906 199.898438 164.207031 C 200.429688 164.285156 200.960938 164.382812 201.484375 164.492188 C 202.011719 164.605469 202.535156 164.730469 203.054688 164.875 C 203.574219 165.019531 204.085938 165.183594 204.597656 165.359375 C 205.105469 165.535156 205.609375 165.726562 206.105469 165.9375 C 206.601562 166.144531 207.089844 166.367188 207.574219 166.609375 C 208.058594 166.847656 208.53125 167.101562 209 167.371094 C 209.464844 167.640625 209.925781 167.921875 210.375 168.222656 C 210.824219 168.519531 211.265625 168.832031 211.695312 169.15625 C 212.125 169.480469 212.542969 169.820312 212.953125 170.171875 C 213.363281 170.523438 213.757812 170.890625 214.144531 171.265625 C 214.53125 171.644531 214.90625 172.03125 215.269531 172.433594 C 215.628906 172.832031 215.980469 173.246094 216.316406 173.667969 C 216.652344 174.089844 216.976562 174.523438 217.285156 174.964844 C 217.59375 175.40625 217.890625 175.859375 218.171875 176.320312 C 218.453125 176.78125 218.722656 177.253906 218.972656 177.730469 C 219.226562 178.207031 219.464844 178.695312 219.683594 179.1875 C 219.90625 179.679688 220.113281 180.179688 220.304688 180.6875 C 220.496094 181.191406 220.671875 181.703125 220.832031 182.21875 C 220.988281 182.738281 221.132812 183.257812 221.257812 183.785156 C 221.386719 184.3125 221.496094 184.839844 221.589844 185.375 C 221.683594 185.90625 221.761719 186.441406 221.820312 186.980469 C 221.882812 187.519531 221.925781 188.058594 221.953125 188.597656 C 221.980469 189.136719 221.988281 189.679688 221.984375 190.21875 C 221.976562 190.761719 221.953125 191.300781 221.914062 191.84375 C 221.871094 192.382812 221.816406 192.917969 221.742188 193.457031 C 221.667969 193.992188 221.578125 194.523438 221.472656 195.054688 C 221.363281 195.585938 221.242188 196.113281 221.101562 196.636719 Z M 221.101562 196.636719 " fill-opacity="0.78" fill-rule="evenodd"/></g><g clip-path="url(#fbb77b3224)"><path fill="#01a6e6" d="M 206.277344 196.78125 C 200.945312 197.003906 196.640625 200.09375 195.667969 215.175781 C 189.140625 210.867188 182.226562 207.324219 174.925781 204.542969 C 174.945312 203.625 175.042969 202.71875 175.210938 201.816406 C 175.382812 200.914062 175.621094 200.035156 175.9375 199.171875 C 176.25 198.3125 176.628906 197.480469 177.078125 196.683594 C 177.523438 195.882812 178.035156 195.128906 178.605469 194.414062 C 179.175781 193.699219 179.800781 193.035156 180.480469 192.421875 C 181.160156 191.808594 181.882812 191.257812 182.652344 190.761719 C 183.421875 190.269531 184.226562 189.84375 185.0625 189.480469 C 185.902344 189.121094 186.765625 188.832031 187.648438 188.613281 C 188.535156 188.394531 189.433594 188.246094 190.34375 188.175781 C 191.25 188.105469 192.160156 188.105469 193.070312 188.183594 C 193.976562 188.261719 194.875 188.414062 195.757812 188.640625 C 196.644531 188.863281 197.503906 189.160156 198.339844 189.527344 C 199.175781 189.894531 199.976562 190.324219 200.742188 190.824219 C 201.507812 191.320312 202.226562 191.878906 202.902344 192.496094 C 203.578125 193.113281 204.199219 193.78125 204.765625 194.5 C 205.332031 195.21875 205.835938 195.980469 206.277344 196.78125 Z M 206.277344 196.78125 " fill-opacity="0.78" fill-rule="evenodd"/></g><path fill="#2063b2" d="M 230.671875 170.871094 C 230.039062 171.054688 229.453125 171.339844 228.914062 171.71875 C 226.839844 173.347656 228.257812 175.109375 228.441406 176.378906 C 228.53125 176.980469 227.988281 177.949219 226.191406 179.128906 C 228.265625 180.667969 226.871094 181.847656 226.035156 182.980469 C 222.152344 185.792969 227.554688 191.890625 221.148438 196.621094 C 214.683594 199.296875 206.820312 194.574219 201.511719 198.199219 C 201.425781 197.710938 201.359375 197.222656 201.304688 196.730469 C 201.25 196.238281 201.210938 195.746094 201.1875 195.25 C 201.164062 194.753906 201.15625 194.261719 201.164062 193.765625 C 201.171875 193.269531 201.191406 192.777344 201.230469 192.285156 C 201.269531 191.789062 201.320312 191.296875 201.386719 190.808594 C 201.457031 190.316406 201.539062 189.828125 201.636719 189.34375 C 201.734375 188.859375 201.847656 188.378906 201.976562 187.898438 C 202.101562 187.421875 202.246094 186.949219 202.402344 186.480469 C 202.558594 186.011719 202.730469 185.546875 202.914062 185.085938 C 203.101562 184.628906 203.300781 184.175781 203.515625 183.730469 C 203.726562 183.285156 203.953125 182.84375 204.195312 182.414062 C 204.433594 181.980469 204.6875 181.558594 204.957031 181.140625 C 205.222656 180.726562 205.5 180.316406 205.792969 179.917969 C 206.085938 179.519531 206.390625 179.132812 206.703125 178.75 C 207.019531 178.371094 207.347656 178.003906 207.6875 177.644531 C 208.023438 177.285156 208.375 176.933594 208.734375 176.597656 C 209.09375 176.261719 209.464844 175.933594 209.84375 175.621094 C 210.226562 175.304688 210.613281 175.003906 211.011719 174.710938 C 211.414062 174.421875 211.820312 174.144531 212.234375 173.878906 C 212.652344 173.617188 213.074219 173.363281 213.507812 173.125 C 213.9375 172.886719 214.378906 172.664062 214.824219 172.453125 C 215.269531 172.242188 215.71875 172.042969 216.175781 171.859375 C 216.632812 171.679688 217.097656 171.507812 217.566406 171.355469 C 218.03125 171.203125 218.503906 171.0625 218.980469 170.9375 C 219.457031 170.8125 219.9375 170.703125 220.421875 170.609375 C 220.90625 170.515625 221.390625 170.433594 221.878906 170.371094 C 222.367188 170.304688 222.855469 170.257812 223.347656 170.222656 C 223.839844 170.191406 224.332031 170.171875 224.824219 170.167969 C 225.316406 170.164062 225.808594 170.175781 226.300781 170.203125 C 226.789062 170.234375 227.28125 170.273438 227.769531 170.332031 C 228.257812 170.390625 228.746094 170.464844 229.230469 170.554688 C 229.714844 170.640625 230.195312 170.746094 230.671875 170.863281 Z M 230.671875 170.871094 " fill-opacity="0.78" fill-rule="evenodd"/><path fill="#12bcbc" d="M 155.585938 171.171875 C 156.195312 171.171875 156.792969 171.113281 157.390625 170.996094 C 157.984375 170.878906 158.5625 170.703125 159.121094 170.46875 C 159.683594 170.234375 160.214844 169.949219 160.71875 169.609375 C 161.222656 169.273438 161.6875 168.886719 162.117188 168.457031 C 162.546875 168.027344 162.929688 167.558594 163.265625 167.050781 C 163.605469 166.542969 163.886719 166.007812 164.121094 165.445312 C 164.351562 164.882812 164.527344 164.300781 164.648438 163.703125 C 164.765625 163.105469 164.824219 162.503906 164.824219 161.894531 C 164.824219 161.285156 164.765625 160.679688 164.648438 160.082031 C 164.527344 159.484375 164.355469 158.902344 164.121094 158.339844 C 163.890625 157.777344 163.605469 157.242188 163.269531 156.734375 C 162.933594 156.226562 162.550781 155.757812 162.121094 155.328125 C 161.691406 154.898438 161.226562 154.511719 160.722656 154.171875 C 160.214844 153.835938 159.683594 153.550781 159.125 153.316406 C 158.5625 153.082031 157.988281 152.90625 157.390625 152.789062 C 156.796875 152.667969 156.195312 152.609375 155.589844 152.609375 C 154.984375 152.609375 154.382812 152.667969 153.789062 152.789062 C 153.195312 152.90625 152.617188 153.082031 152.054688 153.316406 C 151.496094 153.550781 150.964844 153.835938 150.460938 154.175781 C 149.957031 154.515625 149.488281 154.898438 149.0625 155.328125 C 148.632812 155.761719 148.25 156.230469 147.914062 156.738281 C 147.578125 157.242188 147.292969 157.777344 147.058594 158.34375 C 146.828125 158.90625 146.652344 159.484375 146.535156 160.085938 C 146.417969 160.683594 146.359375 161.285156 146.359375 161.894531 C 146.359375 162.503906 146.421875 163.105469 146.539062 163.703125 C 146.660156 164.300781 146.835938 164.878906 147.066406 165.441406 C 147.300781 166.003906 147.582031 166.539062 147.921875 167.046875 C 148.257812 167.550781 148.640625 168.019531 149.066406 168.449219 C 149.496094 168.878906 149.960938 169.265625 150.464844 169.605469 C 150.96875 169.941406 151.5 170.226562 152.058594 170.460938 C 152.617188 170.695312 153.195312 170.871094 153.789062 170.992188 C 154.382812 171.113281 154.980469 171.171875 155.585938 171.171875 Z M 155.585938 171.171875 " fill-opacity="0.78" fill-rule="evenodd"/><path fill="#00b9f1" d="M 174.925781 184.09375 C 175.476562 184.09375 176.027344 184.042969 176.570312 183.933594 C 177.113281 183.828125 177.640625 183.667969 178.152344 183.457031 C 178.664062 183.246094 179.148438 182.984375 179.609375 182.679688 C 180.070312 182.371094 180.496094 182.019531 180.890625 181.628906 C 181.28125 181.234375 181.632812 180.808594 181.941406 180.347656 C 182.25 179.886719 182.507812 179.398438 182.722656 178.882812 C 182.933594 178.371094 183.097656 177.839844 183.203125 177.296875 C 183.3125 176.75 183.367188 176.199219 183.371094 175.644531 C 183.371094 175.085938 183.316406 174.535156 183.210938 173.992188 C 183.105469 173.445312 182.945312 172.914062 182.734375 172.402344 C 182.523438 171.886719 182.265625 171.398438 181.957031 170.933594 C 181.652344 170.472656 181.300781 170.042969 180.910156 169.648438 C 180.519531 169.257812 180.097656 168.902344 179.636719 168.59375 C 179.175781 168.285156 178.691406 168.023438 178.179688 167.808594 C 177.667969 167.597656 177.144531 167.433594 176.601562 167.324219 C 176.058594 167.21875 175.511719 167.160156 174.957031 167.160156 C 174.402344 167.160156 173.855469 167.214844 173.3125 167.324219 C 172.769531 167.429688 172.242188 167.589844 171.730469 167.804688 C 171.21875 168.015625 170.734375 168.277344 170.273438 168.585938 C 169.8125 168.894531 169.386719 169.246094 168.996094 169.636719 C 168.605469 170.03125 168.257812 170.460938 167.949219 170.921875 C 167.640625 171.382812 167.382812 171.871094 167.167969 172.386719 C 166.957031 172.898438 166.796875 173.429688 166.691406 173.976562 C 166.582031 174.519531 166.527344 175.070312 166.527344 175.628906 C 166.527344 176.183594 166.582031 176.730469 166.691406 177.273438 C 166.800781 177.820312 166.960938 178.347656 167.171875 178.859375 C 167.382812 179.371094 167.640625 179.859375 167.945312 180.320312 C 168.253906 180.78125 168.601562 181.207031 168.992188 181.601562 C 169.378906 181.992188 169.804688 182.34375 170.261719 182.652344 C 170.71875 182.960938 171.203125 183.222656 171.710938 183.4375 C 172.222656 183.652344 172.746094 183.8125 173.285156 183.925781 C 173.828125 184.035156 174.375 184.089844 174.925781 184.09375 Z M 174.925781 184.09375 " fill-opacity="0.78" fill-rule="evenodd"/><path fill="#8dc63f" d="M 154.261719 148.585938 C 154.683594 148.585938 155.105469 148.542969 155.523438 148.460938 C 155.9375 148.378906 156.34375 148.253906 156.734375 148.089844 C 157.128906 147.925781 157.5 147.726562 157.855469 147.488281 C 158.207031 147.25 158.535156 146.980469 158.835938 146.679688 C 159.136719 146.378906 159.402344 146.050781 159.640625 145.695312 C 159.875 145.339844 160.074219 144.964844 160.238281 144.570312 C 160.398438 144.175781 160.523438 143.769531 160.605469 143.347656 C 160.6875 142.929688 160.730469 142.507812 160.730469 142.078125 C 160.730469 141.652344 160.6875 141.230469 160.605469 140.8125 C 160.523438 140.390625 160.398438 139.984375 160.238281 139.589844 C 160.074219 139.195312 159.875 138.820312 159.636719 138.464844 C 159.402344 138.109375 159.132812 137.78125 158.832031 137.480469 C 158.53125 137.179688 158.207031 136.910156 157.851562 136.671875 C 157.5 136.433594 157.125 136.234375 156.734375 136.070312 C 156.339844 135.90625 155.9375 135.785156 155.519531 135.703125 C 155.101562 135.617188 154.683594 135.578125 154.257812 135.578125 C 153.832031 135.578125 153.410156 135.621094 152.996094 135.703125 C 152.578125 135.785156 152.175781 135.910156 151.78125 136.074219 C 151.390625 136.238281 151.015625 136.4375 150.664062 136.675781 C 150.308594 136.914062 149.984375 137.183594 149.683594 137.484375 C 149.382812 137.785156 149.113281 138.117188 148.878906 138.472656 C 148.644531 138.824219 148.445312 139.199219 148.28125 139.59375 C 148.117188 139.992188 147.996094 140.398438 147.914062 140.816406 C 147.832031 141.234375 147.789062 141.660156 147.789062 142.085938 C 147.792969 142.511719 147.832031 142.933594 147.917969 143.351562 C 148 143.773438 148.125 144.179688 148.285156 144.570312 C 148.449219 144.964844 148.648438 145.339844 148.882812 145.695312 C 149.121094 146.050781 149.390625 146.378906 149.6875 146.679688 C 149.988281 146.980469 150.316406 147.25 150.667969 147.488281 C 151.023438 147.726562 151.394531 147.925781 151.785156 148.089844 C 152.179688 148.253906 152.582031 148.375 153 148.460938 C 153.414062 148.542969 153.835938 148.585938 154.261719 148.585938 Z M 154.261719 148.585938 " fill-opacity="0.78" fill-rule="evenodd"/><g clip-path="url(#ccebd0ffff)"><path fill="#ffd900" d="M 151.03125 125.921875 C 151.03125 126.292969 150.996094 126.65625 150.925781 127.019531 C 150.855469 127.382812 150.746094 127.734375 150.605469 128.078125 C 150.464844 128.417969 150.292969 128.742188 150.089844 129.050781 C 149.882812 129.359375 149.652344 129.640625 149.390625 129.902344 C 149.132812 130.164062 148.847656 130.398438 148.542969 130.605469 C 148.238281 130.808594 147.914062 130.984375 147.574219 131.125 C 147.234375 131.265625 146.882812 131.371094 146.523438 131.445312 C 146.164062 131.515625 145.800781 131.554688 145.429688 131.554688 C 145.0625 131.554688 144.699219 131.515625 144.339844 131.445312 C 143.976562 131.371094 143.628906 131.265625 143.289062 131.125 C 142.949219 130.984375 142.625 130.808594 142.320312 130.605469 C 142.011719 130.398438 141.730469 130.164062 141.46875 129.902344 C 141.210938 129.640625 140.976562 129.359375 140.773438 129.050781 C 140.570312 128.742188 140.394531 128.417969 140.253906 128.078125 C 140.113281 127.734375 140.007812 127.382812 139.9375 127.019531 C 139.863281 126.65625 139.828125 126.292969 139.828125 125.921875 C 139.828125 125.550781 139.863281 125.183594 139.9375 124.824219 C 140.007812 124.460938 140.113281 124.109375 140.253906 123.765625 C 140.394531 123.425781 140.570312 123.101562 140.773438 122.792969 C 140.976562 122.484375 141.210938 122.199219 141.46875 121.9375 C 141.730469 121.675781 142.011719 121.445312 142.320312 121.238281 C 142.625 121.03125 142.949219 120.859375 143.289062 120.71875 C 143.628906 120.578125 143.976562 120.46875 144.339844 120.398438 C 144.699219 120.324219 145.0625 120.289062 145.429688 120.289062 C 145.800781 120.289062 146.164062 120.324219 146.523438 120.398438 C 146.882812 120.46875 147.234375 120.578125 147.574219 120.71875 C 147.914062 120.859375 148.238281 121.03125 148.542969 121.238281 C 148.847656 121.445312 149.132812 121.675781 149.390625 121.9375 C 149.652344 122.199219 149.882812 122.484375 150.089844 122.792969 C 150.292969 123.101562 150.464844 123.425781 150.605469 123.765625 C 150.746094 124.109375 150.855469 124.460938 150.925781 124.824219 C 150.996094 125.183594 151.03125 125.550781 151.03125 125.921875 Z M 151.03125 125.921875 " fill-opacity="0.78" fill-rule="nonzero"/></g><path fill="#009444" d="M 157.265625 115.601562 C 157.609375 115.601562 157.949219 115.570312 158.289062 115.5 C 158.625 115.433594 158.953125 115.335938 159.269531 115.203125 C 159.585938 115.070312 159.886719 114.910156 160.171875 114.71875 C 160.460938 114.527344 160.722656 114.308594 160.96875 114.066406 C 161.210938 113.820312 161.425781 113.554688 161.617188 113.269531 C 161.808594 112.980469 161.96875 112.679688 162.101562 112.359375 C 162.234375 112.039062 162.332031 111.710938 162.398438 111.371094 C 162.46875 111.035156 162.5 110.691406 162.5 110.347656 C 162.5 110 162.46875 109.660156 162.402344 109.320312 C 162.335938 108.980469 162.234375 108.652344 162.105469 108.335938 C 161.972656 108.015625 161.8125 107.710938 161.621094 107.425781 C 161.429688 107.136719 161.214844 106.871094 160.972656 106.628906 C 160.726562 106.382812 160.464844 106.164062 160.179688 105.972656 C 159.894531 105.78125 159.589844 105.621094 159.273438 105.488281 C 158.957031 105.355469 158.628906 105.253906 158.292969 105.1875 C 157.957031 105.121094 157.617188 105.085938 157.273438 105.085938 C 156.929688 105.085938 156.589844 105.121094 156.25 105.1875 C 155.914062 105.253906 155.585938 105.355469 155.269531 105.484375 C 154.953125 105.617188 154.652344 105.78125 154.367188 105.972656 C 154.082031 106.164062 153.816406 106.382812 153.574219 106.625 C 153.332031 106.871094 153.113281 107.136719 152.921875 107.421875 C 152.730469 107.710938 152.570312 108.011719 152.4375 108.332031 C 152.308594 108.652344 152.207031 108.980469 152.140625 109.316406 C 152.074219 109.65625 152.039062 110 152.039062 110.34375 C 152.042969 110.6875 152.074219 111.03125 152.140625 111.367188 C 152.210938 111.707031 152.308594 112.035156 152.441406 112.355469 C 152.570312 112.671875 152.734375 112.976562 152.925781 113.261719 C 153.113281 113.550781 153.332031 113.8125 153.574219 114.058594 C 153.816406 114.300781 154.078125 114.519531 154.363281 114.710938 C 154.648438 114.902344 154.949219 115.066406 155.269531 115.199219 C 155.585938 115.332031 155.910156 115.429688 156.246094 115.5 C 156.585938 115.566406 156.925781 115.601562 157.265625 115.601562 Z M 157.265625 115.601562 " fill-opacity="0.78" fill-rule="evenodd"/><path fill="#56ba48" d="M 159.042969 128.707031 C 159.5 128.707031 159.941406 128.617188 160.363281 128.441406 C 160.789062 128.265625 161.160156 128.015625 161.484375 127.691406 C 161.808594 127.363281 162.058594 126.988281 162.234375 126.5625 C 162.410156 126.136719 162.496094 125.695312 162.496094 125.234375 C 162.496094 124.773438 162.410156 124.332031 162.234375 123.90625 C 162.058594 123.480469 161.808594 123.105469 161.484375 122.777344 C 161.160156 122.453125 160.789062 122.203125 160.363281 122.023438 C 159.941406 121.847656 159.5 121.761719 159.042969 121.761719 C 158.585938 121.761719 158.144531 121.847656 157.71875 122.023438 C 157.296875 122.203125 156.921875 122.453125 156.597656 122.777344 C 156.277344 123.105469 156.027344 123.480469 155.851562 123.90625 C 155.675781 124.332031 155.585938 124.773438 155.585938 125.234375 C 155.589844 125.695312 155.675781 126.136719 155.851562 126.5625 C 156.027344 126.988281 156.277344 127.363281 156.601562 127.6875 C 156.925781 128.011719 157.296875 128.265625 157.722656 128.441406 C 158.144531 128.617188 158.585938 128.707031 159.042969 128.707031 Z M 159.042969 128.707031 " fill-opacity="0.78" fill-rule="evenodd"/><g clip-path="url(#9bde3e7fe0)"><path fill="#fbad17" d="M 166.246094 106.621094 C 166.707031 106.621094 167.148438 106.535156 167.570312 106.355469 C 167.992188 106.179688 168.367188 105.929688 168.691406 105.605469 C 169.015625 105.277344 169.265625 104.902344 169.441406 104.476562 C 169.613281 104.050781 169.703125 103.609375 169.703125 103.148438 C 169.703125 102.6875 169.613281 102.246094 169.441406 101.820312 C 169.265625 101.394531 169.015625 101.019531 168.691406 100.691406 C 168.367188 100.367188 167.992188 100.117188 167.570312 99.941406 C 167.148438 99.761719 166.707031 99.675781 166.246094 99.675781 C 165.789062 99.675781 165.347656 99.761719 164.925781 99.941406 C 164.503906 100.117188 164.128906 100.367188 163.804688 100.691406 C 163.480469 101.019531 163.230469 101.394531 163.054688 101.820312 C 162.878906 102.246094 162.792969 102.6875 162.792969 103.148438 C 162.792969 103.609375 162.882812 104.050781 163.058594 104.476562 C 163.234375 104.902344 163.484375 105.277344 163.808594 105.601562 C 164.132812 105.925781 164.503906 106.179688 164.925781 106.355469 C 165.351562 106.53125 165.789062 106.621094 166.246094 106.621094 Z M 166.246094 106.621094 " fill-opacity="0.78" fill-rule="evenodd"/></g><path fill="#f15c22" d="M 145.027344 114.363281 C 145.375 114.363281 145.707031 114.292969 146.027344 114.160156 C 146.34375 114.023438 146.628906 113.835938 146.871094 113.585938 C 147.117188 113.339844 147.304688 113.054688 147.433594 112.734375 C 147.566406 112.410156 147.632812 112.074219 147.628906 111.726562 C 147.628906 111.378906 147.5625 111.042969 147.429688 110.722656 C 147.296875 110.402344 147.105469 110.117188 146.859375 109.871094 C 146.613281 109.625 146.332031 109.4375 146.011719 109.304688 C 145.691406 109.171875 145.359375 109.105469 145.011719 109.105469 C 144.664062 109.105469 144.332031 109.171875 144.011719 109.308594 C 143.691406 109.441406 143.410156 109.632812 143.164062 109.878906 C 142.917969 110.125 142.730469 110.40625 142.597656 110.730469 C 142.464844 111.050781 142.398438 111.386719 142.398438 111.734375 C 142.402344 112.085938 142.46875 112.421875 142.601562 112.742188 C 142.734375 113.066406 142.925781 113.347656 143.171875 113.597656 C 143.417969 113.84375 143.703125 114.03125 144.023438 114.164062 C 144.34375 114.296875 144.679688 114.363281 145.027344 114.363281 Z M 145.027344 114.363281 " fill-opacity="0.78" fill-rule="evenodd"/><path fill="#fbad17" d="M 207.191406 141.183594 C 207.191406 141.90625 207.15625 142.621094 207.085938 143.339844 C 207.015625 144.054688 206.910156 144.765625 206.769531 145.472656 C 206.628906 146.175781 206.457031 146.875 206.25 147.5625 C 206.042969 148.25 205.800781 148.925781 205.527344 149.59375 C 205.253906 150.257812 204.945312 150.90625 204.609375 151.539062 C 204.273438 152.175781 203.90625 152.792969 203.507812 153.390625 C 203.109375 153.988281 202.683594 154.566406 202.230469 155.121094 C 201.777344 155.679688 201.296875 156.210938 200.789062 156.71875 C 200.285156 157.226562 199.753906 157.710938 199.199219 158.167969 C 198.648438 158.625 198.074219 159.050781 197.476562 159.453125 C 196.882812 159.851562 196.269531 160.21875 195.636719 160.558594 C 195.007812 160.898438 194.359375 161.207031 193.699219 161.480469 C 193.039062 161.757812 192.367188 162 191.679688 162.207031 C 190.996094 162.417969 190.300781 162.589844 189.601562 162.730469 C 188.898438 162.871094 188.191406 162.976562 187.480469 163.046875 C 186.765625 163.117188 186.054688 163.152344 185.335938 163.152344 C 184.621094 163.152344 183.90625 163.117188 183.195312 163.046875 C 182.484375 162.976562 181.777344 162.871094 181.074219 162.730469 C 180.371094 162.589844 179.679688 162.417969 178.992188 162.207031 C 178.308594 162 177.636719 161.757812 176.976562 161.480469 C 176.3125 161.207031 175.667969 160.898438 175.035156 160.558594 C 174.40625 160.21875 173.792969 159.851562 173.195312 159.453125 C 172.601562 159.050781 172.027344 158.625 171.472656 158.167969 C 170.921875 157.710938 170.390625 157.226562 169.886719 156.71875 C 169.378906 156.210938 168.898438 155.679688 168.445312 155.121094 C 167.992188 154.566406 167.566406 153.988281 167.167969 153.390625 C 166.769531 152.792969 166.402344 152.175781 166.066406 151.539062 C 165.726562 150.90625 165.421875 150.257812 165.148438 149.59375 C 164.875 148.925781 164.632812 148.25 164.425781 147.5625 C 164.21875 146.875 164.042969 146.175781 163.90625 145.472656 C 163.765625 144.765625 163.660156 144.054688 163.589844 143.339844 C 163.519531 142.621094 163.484375 141.90625 163.484375 141.183594 C 163.484375 140.464844 163.519531 139.746094 163.589844 139.03125 C 163.660156 138.316406 163.765625 137.605469 163.90625 136.898438 C 164.042969 136.191406 164.21875 135.496094 164.425781 134.808594 C 164.632812 134.121094 164.875 133.441406 165.148438 132.777344 C 165.421875 132.113281 165.726562 131.464844 166.066406 130.828125 C 166.402344 130.195312 166.769531 129.578125 167.167969 128.980469 C 167.566406 128.382812 167.992188 127.804688 168.445312 127.246094 C 168.898438 126.691406 169.378906 126.160156 169.886719 125.652344 C 170.390625 125.140625 170.921875 124.660156 171.472656 124.203125 C 172.027344 123.746094 172.601562 123.316406 173.195312 122.917969 C 173.792969 122.519531 174.40625 122.148438 175.035156 121.808594 C 175.667969 121.472656 176.3125 121.164062 176.976562 120.886719 C 177.636719 120.613281 178.308594 120.371094 178.992188 120.160156 C 179.679688 119.953125 180.371094 119.777344 181.074219 119.636719 C 181.777344 119.496094 182.484375 119.390625 183.195312 119.320312 C 183.90625 119.25 184.621094 119.214844 185.335938 119.214844 C 186.054688 119.214844 186.765625 119.25 187.480469 119.320312 C 188.191406 119.390625 188.898438 119.496094 189.601562 119.636719 C 190.300781 119.777344 190.996094 119.953125 191.679688 120.160156 C 192.367188 120.371094 193.039062 120.613281 193.699219 120.886719 C 194.359375 121.164062 195.007812 121.472656 195.636719 121.808594 C 196.269531 122.148438 196.882812 122.519531 197.476562 122.917969 C 198.074219 123.316406 198.648438 123.746094 199.199219 124.203125 C 199.753906 124.660156 200.285156 125.140625 200.789062 125.652344 C 201.296875 126.160156 201.777344 126.691406 202.230469 127.246094 C 202.683594 127.804688 203.109375 128.382812 203.507812 128.980469 C 203.90625 129.578125 204.273438 130.195312 204.609375 130.828125 C 204.945312 131.464844 205.253906 132.113281 205.527344 132.777344 C 205.800781 133.441406 206.042969 134.121094 206.25 134.808594 C 206.457031 135.496094 206.628906 136.191406 206.769531 136.898438 C 206.910156 137.605469 207.015625 138.316406 207.085938 139.03125 C 207.15625 139.746094 207.191406 140.464844 207.191406 141.183594 Z M 207.191406 141.183594 " fill-opacity="0.78" fill-rule="nonzero"/><path fill="#ec008b" d="M 197.410156 107.933594 C 207.882812 110.101562 216.65625 115.378906 221.828125 122.960938 C 221.738281 123.605469 221.613281 124.242188 221.445312 124.867188 C 221.277344 125.496094 221.070312 126.109375 220.828125 126.710938 C 220.585938 127.3125 220.308594 127.894531 219.992188 128.460938 C 219.675781 129.027344 219.328125 129.574219 218.945312 130.097656 C 218.5625 130.621094 218.148438 131.117188 217.707031 131.589844 C 217.261719 132.0625 216.792969 132.503906 216.292969 132.917969 C 215.796875 133.328125 215.273438 133.710938 214.726562 134.058594 C 214.183594 134.40625 213.617188 134.71875 213.035156 134.996094 C 212.449219 135.273438 211.851562 135.511719 211.238281 135.714844 C 210.625 135.917969 210 136.082031 209.367188 136.207031 C 208.734375 136.332031 208.09375 136.417969 207.453125 136.464844 C 206.808594 136.507812 206.164062 136.515625 205.519531 136.480469 C 204.875 136.445312 204.234375 136.371094 203.597656 136.253906 C 202.960938 136.140625 202.335938 135.984375 201.71875 135.792969 C 201.101562 135.601562 200.5 135.371094 199.910156 135.101562 C 199.324219 134.835938 198.753906 134.53125 198.203125 134.191406 C 197.652344 133.851562 197.125 133.480469 196.621094 133.074219 C 196.117188 132.671875 195.636719 132.238281 195.1875 131.773438 C 194.734375 131.308594 194.3125 130.816406 193.921875 130.300781 C 193.53125 129.785156 193.175781 129.246094 192.851562 128.683594 C 192.527344 128.121094 192.238281 127.542969 191.984375 126.945312 C 191.734375 126.347656 191.519531 125.734375 191.339844 125.113281 C 191.164062 124.488281 191.023438 123.855469 190.925781 123.214844 C 190.828125 122.570312 190.765625 121.925781 190.746094 121.277344 C 190.726562 120.628906 190.75 119.980469 190.808594 119.335938 C 190.867188 118.6875 190.96875 118.046875 191.109375 117.414062 C 191.246094 116.78125 191.425781 116.15625 191.640625 115.546875 C 191.855469 114.933594 192.109375 114.339844 192.398438 113.757812 C 192.6875 113.179688 193.011719 112.617188 193.371094 112.078125 C 193.730469 111.539062 194.121094 111.023438 194.542969 110.53125 C 194.964844 110.039062 195.417969 109.578125 195.894531 109.140625 C 196.375 108.707031 196.878906 108.304688 197.410156 107.933594 Z M 197.410156 107.933594 " fill-opacity="0.78" fill-rule="evenodd"/><path fill="#56ba48" d="M 177.980469 131.558594 C 178.839844 131.558594 179.691406 131.472656 180.535156 131.304688 C 181.375 131.136719 182.195312 130.886719 182.988281 130.558594 C 183.78125 130.226562 184.539062 129.820312 185.253906 129.339844 C 185.964844 128.863281 186.628906 128.316406 187.234375 127.707031 C 187.84375 127.09375 188.386719 126.429688 188.863281 125.710938 C 189.339844 124.996094 189.746094 124.234375 190.074219 123.4375 C 190.402344 122.640625 190.652344 121.816406 190.820312 120.96875 C 190.988281 120.121094 191.070312 119.265625 191.070312 118.402344 C 191.070312 117.539062 190.988281 116.683594 190.820312 115.835938 C 190.652344 114.988281 190.40625 114.164062 190.074219 113.367188 C 189.746094 112.570312 189.34375 111.8125 188.867188 111.09375 C 188.390625 110.375 187.847656 109.707031 187.238281 109.097656 C 186.632812 108.488281 185.972656 107.941406 185.257812 107.460938 C 184.542969 106.980469 183.789062 106.574219 182.992188 106.246094 C 182.199219 105.914062 181.382812 105.664062 180.539062 105.496094 C 179.695312 105.328125 178.84375 105.242188 177.984375 105.242188 C 177.125 105.242188 176.273438 105.328125 175.433594 105.496094 C 174.589844 105.664062 173.769531 105.914062 172.976562 106.242188 C 172.183594 106.574219 171.429688 106.980469 170.714844 107.460938 C 170 107.941406 169.335938 108.484375 168.730469 109.097656 C 168.121094 109.707031 167.578125 110.371094 167.101562 111.089844 C 166.625 111.808594 166.222656 112.566406 165.894531 113.363281 C 165.5625 114.164062 165.316406 114.984375 165.148438 115.832031 C 164.980469 116.679688 164.894531 117.535156 164.894531 118.398438 C 164.898438 119.261719 164.984375 120.117188 165.152344 120.964844 C 165.320312 121.8125 165.570312 122.632812 165.898438 123.429688 C 166.226562 124.226562 166.632812 124.984375 167.109375 125.703125 C 167.585938 126.421875 168.128906 127.085938 168.734375 127.695312 C 169.34375 128.304688 170.003906 128.851562 170.714844 129.332031 C 171.429688 129.8125 172.183594 130.21875 172.976562 130.546875 C 173.769531 130.878906 174.585938 131.128906 175.429688 131.300781 C 176.269531 131.46875 177.121094 131.554688 177.980469 131.558594 Z M 177.980469 131.558594 " fill-opacity="0.78" fill-rule="evenodd"/><g fill="#7ed957" fill-opacity="1"><g transform="translate(34.514588, 248.253279)"><g><path d="M 11.8125 -9.609375 L 8.53125 -6.1875 L 8.53125 0 L 2.90625 0 L 2.90625 -24.453125 L 8.53125 -24.453125 L 8.53125 -13.03125 L 19.359375 -24.453125 L 25.640625 -24.453125 L 15.515625 -13.5625 L 26.234375 0 L 19.640625 0 Z M 11.8125 -9.609375 "/></g></g></g><g fill="#7ed957" fill-opacity="1"><g transform="translate(62.147605, 248.253279)"><g><path d="M 2.515625 -25.921875 L 7.96875 -25.921875 L 7.96875 0 L 2.515625 0 Z M 2.515625 -25.921875 "/></g></g></g><g fill="#7ed957" fill-opacity="1"><g transform="translate(74.444762, 248.253279)"><g><path d="M 10.09375 -19.078125 C 13.007812 -19.078125 15.242188 -18.382812 16.796875 -17 C 18.359375 -15.613281 19.140625 -13.519531 19.140625 -10.71875 L 19.140625 0 L 14.046875 0 L 14.046875 -2.34375 C 13.015625 -0.59375 11.101562 0.28125 8.3125 0.28125 C 6.875 0.28125 5.625 0.0351562 4.5625 -0.453125 C 3.5 -0.941406 2.6875 -1.613281 2.125 -2.46875 C 1.570312 -3.332031 1.296875 -4.316406 1.296875 -5.421875 C 1.296875 -7.160156 1.953125 -8.53125 3.265625 -9.53125 C 4.578125 -10.539062 6.609375 -11.046875 9.359375 -11.046875 L 13.703125 -11.046875 C 13.703125 -12.234375 13.335938 -13.144531 12.609375 -13.78125 C 11.890625 -14.425781 10.804688 -14.75 9.359375 -14.75 C 8.359375 -14.75 7.375 -14.585938 6.40625 -14.265625 C 5.445312 -13.953125 4.628906 -13.53125 3.953125 -13 L 1.984375 -16.8125 C 3.015625 -17.53125 4.242188 -18.085938 5.671875 -18.484375 C 7.109375 -18.878906 8.582031 -19.078125 10.09375 -19.078125 Z M 9.671875 -3.390625 C 10.609375 -3.390625 11.4375 -3.601562 12.15625 -4.03125 C 12.875 -4.46875 13.390625 -5.101562 13.703125 -5.9375 L 13.703125 -7.859375 L 9.953125 -7.859375 C 7.722656 -7.859375 6.609375 -7.125 6.609375 -5.65625 C 6.609375 -4.957031 6.878906 -4.40625 7.421875 -4 C 7.972656 -3.59375 8.722656 -3.390625 9.671875 -3.390625 Z M 9.671875 -3.390625 "/></g></g></g><g fill="#7ed957" fill-opacity="1"><g transform="translate(97.780935, 248.253279)"><g><path d="M 21.453125 -18.796875 L 21.453125 0 L 16.28125 0 L 16.28125 -2.234375 C 15.5625 -1.421875 14.695312 -0.796875 13.6875 -0.359375 C 12.6875 0.0664062 11.609375 0.28125 10.453125 0.28125 C 7.984375 0.28125 6.023438 -0.425781 4.578125 -1.84375 C 3.128906 -3.269531 2.40625 -5.378906 2.40625 -8.171875 L 2.40625 -18.796875 L 7.859375 -18.796875 L 7.859375 -8.984375 C 7.859375 -5.953125 9.128906 -4.4375 11.671875 -4.4375 C 12.972656 -4.4375 14.019531 -4.859375 14.8125 -5.703125 C 15.601562 -6.554688 16 -7.820312 16 -9.5 L 16 -18.796875 Z M 21.453125 -18.796875 "/></g></g></g><g fill="#7ed957" fill-opacity="1"><g transform="translate(123.562469, 248.253279)"><g><path d="M 8.84375 0.28125 C 7.28125 0.28125 5.753906 0.0859375 4.265625 -0.296875 C 2.773438 -0.679688 1.585938 -1.164062 0.703125 -1.75 L 2.515625 -5.65625 C 3.347656 -5.125 4.359375 -4.6875 5.546875 -4.34375 C 6.742188 -4.007812 7.910156 -3.84375 9.046875 -3.84375 C 11.347656 -3.84375 12.5 -4.414062 12.5 -5.5625 C 12.5 -6.09375 12.1875 -6.472656 11.5625 -6.703125 C 10.9375 -6.941406 9.972656 -7.140625 8.671875 -7.296875 C 7.128906 -7.535156 5.859375 -7.804688 4.859375 -8.109375 C 3.859375 -8.410156 2.988281 -8.941406 2.25 -9.703125 C 1.519531 -10.472656 1.15625 -11.570312 1.15625 -13 C 1.15625 -14.1875 1.5 -15.238281 2.1875 -16.15625 C 2.875 -17.070312 3.875 -17.785156 5.1875 -18.296875 C 6.5 -18.816406 8.054688 -19.078125 9.859375 -19.078125 C 11.179688 -19.078125 12.5 -18.929688 13.8125 -18.640625 C 15.132812 -18.347656 16.222656 -17.945312 17.078125 -17.4375 L 15.265625 -13.5625 C 13.609375 -14.488281 11.804688 -14.953125 9.859375 -14.953125 C 8.691406 -14.953125 7.816406 -14.785156 7.234375 -14.453125 C 6.648438 -14.128906 6.359375 -13.710938 6.359375 -13.203125 C 6.359375 -12.617188 6.671875 -12.210938 7.296875 -11.984375 C 7.929688 -11.753906 8.9375 -11.53125 10.3125 -11.3125 C 11.84375 -11.0625 13.097656 -10.789062 14.078125 -10.5 C 15.054688 -10.207031 15.90625 -9.675781 16.625 -8.90625 C 17.351562 -8.132812 17.71875 -7.0625 17.71875 -5.6875 C 17.71875 -4.53125 17.363281 -3.492188 16.65625 -2.578125 C 15.957031 -1.671875 14.9375 -0.96875 13.59375 -0.46875 C 12.257812 0.03125 10.675781 0.28125 8.84375 0.28125 Z M 8.84375 0.28125 "/></g></g></g><g fill="#7ed957" fill-opacity="1"><g transform="translate(143.89435, 248.253279)"><g><path d="M 21.453125 -18.796875 L 21.453125 0 L 16.28125 0 L 16.28125 -2.234375 C 15.5625 -1.421875 14.695312 -0.796875 13.6875 -0.359375 C 12.6875 0.0664062 11.609375 0.28125 10.453125 0.28125 C 7.984375 0.28125 6.023438 -0.425781 4.578125 -1.84375 C 3.128906 -3.269531 2.40625 -5.378906 2.40625 -8.171875 L 2.40625 -18.796875 L 7.859375 -18.796875 L 7.859375 -8.984375 C 7.859375 -5.953125 9.128906 -4.4375 11.671875 -4.4375 C 12.972656 -4.4375 14.019531 -4.859375 14.8125 -5.703125 C 15.601562 -6.554688 16 -7.820312 16 -9.5 L 16 -18.796875 Z M 21.453125 -18.796875 "/></g></g></g><g fill="#7ed957" fill-opacity="1"><g transform="translate(169.675884, 248.253279)"><g><path d="M 7.71875 -16.3125 C 8.375 -17.21875 9.253906 -17.90625 10.359375 -18.375 C 11.460938 -18.84375 12.738281 -19.078125 14.1875 -19.078125 L 14.1875 -14.046875 C 13.582031 -14.085938 13.175781 -14.109375 12.96875 -14.109375 C 11.40625 -14.109375 10.179688 -13.671875 9.296875 -12.796875 C 8.410156 -11.929688 7.96875 -10.625 7.96875 -8.875 L 7.96875 0 L 2.515625 0 L 2.515625 -18.796875 L 7.71875 -18.796875 Z M 7.71875 -16.3125 "/></g></g></g><g fill="#7ed957" fill-opacity="1"><g transform="translate(186.51441, 248.253279)"><g><path d="M 20.921875 -9.328125 C 20.921875 -9.253906 20.890625 -8.765625 20.828125 -7.859375 L 6.609375 -7.859375 C 6.859375 -6.691406 7.460938 -5.769531 8.421875 -5.09375 C 9.378906 -4.425781 10.566406 -4.09375 11.984375 -4.09375 C 12.960938 -4.09375 13.828125 -4.238281 14.578125 -4.53125 C 15.335938 -4.820312 16.046875 -5.28125 16.703125 -5.90625 L 19.59375 -2.765625 C 17.820312 -0.734375 15.238281 0.28125 11.84375 0.28125 C 9.726562 0.28125 7.851562 -0.128906 6.21875 -0.953125 C 4.582031 -1.785156 3.320312 -2.9375 2.4375 -4.40625 C 1.5625 -5.875 1.125 -7.535156 1.125 -9.390625 C 1.125 -11.234375 1.554688 -12.894531 2.421875 -14.375 C 3.296875 -15.851562 4.492188 -17.003906 6.015625 -17.828125 C 7.546875 -18.660156 9.253906 -19.078125 11.140625 -19.078125 C 12.984375 -19.078125 14.648438 -18.679688 16.140625 -17.890625 C 17.628906 -17.097656 18.796875 -15.960938 19.640625 -14.484375 C 20.492188 -13.003906 20.921875 -11.285156 20.921875 -9.328125 Z M 11.1875 -14.953125 C 9.945312 -14.953125 8.90625 -14.601562 8.0625 -13.90625 C 7.226562 -13.207031 6.71875 -12.253906 6.53125 -11.046875 L 15.796875 -11.046875 C 15.609375 -12.234375 15.09375 -13.179688 14.25 -13.890625 C 13.414062 -14.597656 12.394531 -14.953125 11.1875 -14.953125 Z M 11.1875 -14.953125 "/></g></g></g><g fill="#7ed957" fill-opacity="1"><g transform="translate(210.339657, 248.253279)"><g/></g></g><g fill="#5ce1e6" fill-opacity="1"><g transform="translate(222.014576, 248.253279)"><g><path d="M 25.15625 0 L 25.125 -14.671875 L 17.921875 -2.578125 L 15.375 -2.578125 L 8.203125 -14.359375 L 8.203125 0 L 2.90625 0 L 2.90625 -24.453125 L 7.578125 -24.453125 L 16.734375 -9.265625 L 25.75 -24.453125 L 30.390625 -24.453125 L 30.46875 0 Z M 25.15625 0 "/></g></g></g><g fill="#5ce1e6" fill-opacity="1"><g transform="translate(257.158315, 248.253279)"><g><path d="M 10.09375 -19.078125 C 13.007812 -19.078125 15.242188 -18.382812 16.796875 -17 C 18.359375 -15.613281 19.140625 -13.519531 19.140625 -10.71875 L 19.140625 0 L 14.046875 0 L 14.046875 -2.34375 C 13.015625 -0.59375 11.101562 0.28125 8.3125 0.28125 C 6.875 0.28125 5.625 0.0351562 4.5625 -0.453125 C 3.5 -0.941406 2.6875 -1.613281 2.125 -2.46875 C 1.570312 -3.332031 1.296875 -4.316406 1.296875 -5.421875 C 1.296875 -7.160156 1.953125 -8.53125 3.265625 -9.53125 C 4.578125 -10.539062 6.609375 -11.046875 9.359375 -11.046875 L 13.703125 -11.046875 C 13.703125 -12.234375 13.335938 -13.144531 12.609375 -13.78125 C 11.890625 -14.425781 10.804688 -14.75 9.359375 -14.75 C 8.359375 -14.75 7.375 -14.585938 6.40625 -14.265625 C 5.445312 -13.953125 4.628906 -13.53125 3.953125 -13 L 1.984375 -16.8125 C 3.015625 -17.53125 4.242188 -18.085938 5.671875 -18.484375 C 7.109375 -18.878906 8.582031 -19.078125 10.09375 -19.078125 Z M 9.671875 -3.390625 C 10.609375 -3.390625 11.4375 -3.601562 12.15625 -4.03125 C 12.875 -4.46875 13.390625 -5.101562 13.703125 -5.9375 L 13.703125 -7.859375 L 9.953125 -7.859375 C 7.722656 -7.859375 6.609375 -7.125 6.609375 -5.65625 C 6.609375 -4.957031 6.878906 -4.40625 7.421875 -4 C 7.972656 -3.59375 8.722656 -3.390625 9.671875 -3.390625 Z M 9.671875 -3.390625 "/></g></g></g><g fill="#5ce1e6" fill-opacity="1"><g transform="translate(280.494488, 248.253279)"><g><path d="M 26.59375 -19.078125 C 28.9375 -19.078125 30.800781 -18.382812 32.1875 -17 C 33.582031 -15.613281 34.28125 -13.535156 34.28125 -10.765625 L 34.28125 0 L 28.828125 0 L 28.828125 -9.921875 C 28.828125 -11.410156 28.515625 -12.519531 27.890625 -13.25 C 27.273438 -13.988281 26.398438 -14.359375 25.265625 -14.359375 C 23.984375 -14.359375 22.96875 -13.941406 22.21875 -13.109375 C 21.476562 -12.285156 21.109375 -11.0625 21.109375 -9.4375 L 21.109375 0 L 15.65625 0 L 15.65625 -9.921875 C 15.65625 -12.878906 14.46875 -14.359375 12.09375 -14.359375 C 10.832031 -14.359375 9.828125 -13.941406 9.078125 -13.109375 C 8.335938 -12.285156 7.96875 -11.0625 7.96875 -9.4375 L 7.96875 0 L 2.515625 0 L 2.515625 -18.796875 L 7.71875 -18.796875 L 7.71875 -16.625 C 8.414062 -17.414062 9.269531 -18.019531 10.28125 -18.4375 C 11.300781 -18.863281 12.414062 -19.078125 13.625 -19.078125 C 14.945312 -19.078125 16.144531 -18.8125 17.21875 -18.28125 C 18.289062 -17.757812 19.15625 -17 19.8125 -16 C 20.582031 -16.976562 21.550781 -17.734375 22.71875 -18.265625 C 23.894531 -18.804688 25.1875 -19.078125 26.59375 -19.078125 Z M 26.59375 -19.078125 "/></g></g></g><g fill="#5ce1e6" fill-opacity="1"><g transform="translate(318.921995, 248.253279)"><g><path d="M 10.09375 -19.078125 C 13.007812 -19.078125 15.242188 -18.382812 16.796875 -17 C 18.359375 -15.613281 19.140625 -13.519531 19.140625 -10.71875 L 19.140625 0 L 14.046875 0 L 14.046875 -2.34375 C 13.015625 -0.59375 11.101562 0.28125 8.3125 0.28125 C 6.875 0.28125 5.625 0.0351562 4.5625 -0.453125 C 3.5 -0.941406 2.6875 -1.613281 2.125 -2.46875 C 1.570312 -3.332031 1.296875 -4.316406 1.296875 -5.421875 C 1.296875 -7.160156 1.953125 -8.53125 3.265625 -9.53125 C 4.578125 -10.539062 6.609375 -11.046875 9.359375 -11.046875 L 13.703125 -11.046875 C 13.703125 -12.234375 13.335938 -13.144531 12.609375 -13.78125 C 11.890625 -14.425781 10.804688 -14.75 9.359375 -14.75 C 8.359375 -14.75 7.375 -14.585938 6.40625 -14.265625 C 5.445312 -13.953125 4.628906 -13.53125 3.953125 -13 L 1.984375 -16.8125 C 3.015625 -17.53125 4.242188 -18.085938 5.671875 -18.484375 C 7.109375 -18.878906 8.582031 -19.078125 10.09375 -19.078125 Z M 9.671875 -3.390625 C 10.609375 -3.390625 11.4375 -3.601562 12.15625 -4.03125 C 12.875 -4.46875 13.390625 -5.101562 13.703125 -5.9375 L 13.703125 -7.859375 L 9.953125 -7.859375 C 7.722656 -7.859375 6.609375 -7.125 6.609375 -5.65625 C 6.609375 -4.957031 6.878906 -4.40625 7.421875 -4 C 7.972656 -3.59375 8.722656 -3.390625 9.671875 -3.390625 Z M 9.671875 -3.390625 "/></g></g></g></svg>